<svg id="visual" viewBox="0 0 960 540" width="960" height="540" xmlns="http://www.w3.org/2000/svg"
     xmlns:xlink="http://www.w3.org/1999/xlink" version="1.1">
    <path d="M0 164L22.8 171.5C45.7 179 91.3 194 137 198.3C182.7 202.7 228.3 196.3 274 186.8C319.7 177.3 365.3 164.7 411.2 161C457 157.3 503 162.7 548.8 171.8C594.7 181 640.3 194 686 201.2C731.7 208.3 777.3 209.7 823 205C868.7 200.3 914.3 189.7 937.2 184.3L960 179L960 0L937.2 0C914.3 0 868.7 0 823 0C777.3 0 731.7 0 686 0C640.3 0 594.7 0 548.8 0C503 0 457 0 411.2 0C365.3 0 319.7 0 274 0C228.3 0 182.7 0 137 0C91.3 0 45.7 0 22.8 0L0 0Z"
          fill="#f9db03"></path>
    <path d="M0 113L22.8 113.8C45.7 114.7 91.3 116.3 137 128C182.7 139.7 228.3 161.3 274 166.8C319.7 172.3 365.3 161.7 411.2 156.3C457 151 503 151 548.8 156C594.7 161 640.3 171 686 165C731.7 159 777.3 137 823 136.2C868.7 135.3 914.3 155.7 937.2 165.8L960 176L960 0L937.2 0C914.3 0 868.7 0 823 0C777.3 0 731.7 0 686 0C640.3 0 594.7 0 548.8 0C503 0 457 0 411.2 0C365.3 0 319.7 0 274 0C228.3 0 182.7 0 137 0C91.3 0 45.7 0 22.8 0L0 0Z"
          fill="#fde461"></path>
    <path d="M0 95L22.8 99.7C45.7 104.3 91.3 113.7 137 112C182.7 110.3 228.3 97.7 274 97C319.7 96.3 365.3 107.7 411.2 114.5C457 121.3 503 123.7 548.8 123.8C594.7 124 640.3 122 686 123.3C731.7 124.7 777.3 129.3 823 126.2C868.7 123 914.3 112 937.2 106.5L960 101L960 0L937.2 0C914.3 0 868.7 0 823 0C777.3 0 731.7 0 686 0C640.3 0 594.7 0 548.8 0C503 0 457 0 411.2 0C365.3 0 319.7 0 274 0C228.3 0 182.7 0 137 0C91.3 0 45.7 0 22.8 0L0 0Z"
          fill="#ffec98"></path>
    <path d="M0 70L22.8 69.5C45.7 69 91.3 68 137 67.8C182.7 67.7 228.3 68.3 274 65.5C319.7 62.7 365.3 56.3 411.2 58C457 59.7 503 69.3 548.8 69.8C594.7 70.3 640.3 61.7 686 63.7C731.7 65.7 777.3 78.3 823 82.2C868.7 86 914.3 81 937.2 78.5L960 76L960 0L937.2 0C914.3 0 868.7 0 823 0C777.3 0 731.7 0 686 0C640.3 0 594.7 0 548.8 0C503 0 457 0 411.2 0C365.3 0 319.7 0 274 0C228.3 0 182.7 0 137 0C91.3 0 45.7 0 22.8 0L0 0Z"
          fill="#fff5cc"></path>
    <path d="M0 47L22.8 44C45.7 41 91.3 35 137 32.3C182.7 29.7 228.3 30.3 274 31.8C319.7 33.3 365.3 35.7 411.2 37.8C457 40 503 42 548.8 41.7C594.7 41.3 640.3 38.7 686 35.2C731.7 31.7 777.3 27.3 823 30.2C868.7 33 914.3 43 937.2 48L960 53L960 0L937.2 0C914.3 0 868.7 0 823 0C777.3 0 731.7 0 686 0C640.3 0 594.7 0 548.8 0C503 0 457 0 411.2 0C365.3 0 319.7 0 274 0C228.3 0 182.7 0 137 0C91.3 0 45.7 0 22.8 0L0 0Z"
          fill="#ffffff"></path>
</svg>