<svg id="visual" viewBox="0 0 900 600" width="900" height="600" xmlns="http://www.w3.org/2000/svg" xmlns:xlink="http://www.w3.org/1999/xlink" version="1.1"><path d="M0 188L21.5 195.5C43 203 86 218 128.8 227.7C171.7 237.3 214.3 241.7 257.2 242.8C300 244 343 242 385.8 234C428.7 226 471.3 212 514.2 198.5C557 185 600 172 642.8 167.3C685.7 162.7 728.3 166.3 771.2 174.3C814 182.3 857 194.7 878.5 200.8L900 207L900 0L878.5 0C857 0 814 0 771.2 0C728.3 0 685.7 0 642.8 0C600 0 557 0 514.2 0C471.3 0 428.7 0 385.8 0C343 0 300 0 257.2 0C214.3 0 171.7 0 128.8 0C86 0 43 0 21.5 0L0 0Z" fill="#ffffff"></path><path d="M0 126L21.5 139.2C43 152.3 86 178.7 128.8 187.2C171.7 195.7 214.3 186.3 257.2 186C300 185.7 343 194.3 385.8 189.5C428.7 184.7 471.3 166.3 514.2 158.7C557 151 600 154 642.8 152.3C685.7 150.7 728.3 144.3 771.2 138.2C814 132 857 126 878.5 123L900 120L900 0L878.5 0C857 0 814 0 771.2 0C728.3 0 685.7 0 642.8 0C600 0 557 0 514.2 0C471.3 0 428.7 0 385.8 0C343 0 300 0 257.2 0C214.3 0 171.7 0 128.8 0C86 0 43 0 21.5 0L0 0Z" fill="#fff5cc"></path><path d="M0 88L21.5 97.3C43 106.7 86 125.3 128.8 129.5C171.7 133.7 214.3 123.3 257.2 122.3C300 121.3 343 129.7 385.8 127C428.7 124.3 471.3 110.7 514.2 113C557 115.3 600 133.7 642.8 139C685.7 144.3 728.3 136.7 771.2 128.5C814 120.3 857 111.7 878.5 107.3L900 103L900 0L878.5 0C857 0 814 0 771.2 0C728.3 0 685.7 0 642.8 0C600 0 557 0 514.2 0C471.3 0 428.7 0 385.8 0C343 0 300 0 257.2 0C214.3 0 171.7 0 128.8 0C86 0 43 0 21.5 0L0 0Z" fill="#ffec98"></path><path d="M0 82L21.5 79.3C43 76.7 86 71.3 128.8 67C171.7 62.7 214.3 59.3 257.2 58.8C300 58.3 343 60.7 385.8 69.5C428.7 78.3 471.3 93.7 514.2 94.5C557 95.3 600 81.7 642.8 77.5C685.7 73.3 728.3 78.7 771.2 79.2C814 79.7 857 75.3 878.5 73.2L900 71L900 0L878.5 0C857 0 814 0 771.2 0C728.3 0 685.7 0 642.8 0C600 0 557 0 514.2 0C471.3 0 428.7 0 385.8 0C343 0 300 0 257.2 0C214.3 0 171.7 0 128.8 0C86 0 43 0 21.5 0L0 0Z" fill="#fde461"></path><path d="M0 65L21.5 59.5C43 54 86 43 128.8 42.5C171.7 42 214.3 52 257.2 50.8C300 49.7 343 37.3 385.8 32.2C428.7 27 471.3 29 514.2 29.5C557 30 600 29 642.8 32.2C685.7 35.3 728.3 42.7 771.2 42.7C814 42.7 857 35.3 878.5 31.7L900 28L900 0L878.5 0C857 0 814 0 771.2 0C728.3 0 685.7 0 642.8 0C600 0 557 0 514.2 0C471.3 0 428.7 0 385.8 0C343 0 300 0 257.2 0C214.3 0 171.7 0 128.8 0C86 0 43 0 21.5 0L0 0Z" fill="#f9db03"></path></svg>