<?xml version="1.0" encoding="utf-8"?>
<!-- Generator: Adobe Illustrator 23.0.3, SVG Export Plug-In . SVG Version: 6.00 Build 0)  -->
<svg version="1.1" id="Layer_1" xmlns="http://www.w3.org/2000/svg" xmlns:xlink="http://www.w3.org/1999/xlink" x="0px" y="0px"
	 viewBox="0 0 512 512" style="enable-background:new 0 0 512 512;" xml:space="preserve">
<style type="text/css">
	.st0{fill:none;stroke:#231F20;stroke-width:15;stroke-miterlimit:10;}
	.st1{enable-background:new    ;}
	.st2{fill:#825400;}
	.st3{fill:#B47500;}
	.st4{fill:#DF9000;}
	.st5{clip-path:url(#SVGID_2_);enable-background:new    ;}
	.st6{fill:#996300;}
	.st7{fill:#946000;}
	.st8{fill:#8F5C00;}
	.st9{fill:#8A5900;}
	.st10{fill:#855600;}
	.st11{clip-path:url(#SVGID_4_);enable-background:new    ;}
	.st12{clip-path:url(#SVGID_6_);enable-background:new    ;}
	.st13{fill:#A86D00;}
	.st14{fill:#A36A00;}
	.st15{fill:#9E6600;}
	.st16{clip-path:url(#SVGID_8_);enable-background:new    ;}
	.st17{fill:#191617;}
	.st18{clip-path:url(#SVGID_10_);enable-background:new    ;}
	.st19{fill:#151313;}
	.st20{fill:#141213;}
	.st21{fill:#141112;}
	.st22{fill:#131111;}
	.st23{fill:#121011;}
	.st24{fill:#121010;}
	.st25{clip-path:url(#SVGID_12_);enable-background:new    ;}
	.st26{clip-path:url(#SVGID_14_);enable-background:new    ;}
	.st27{fill:#171415;}
	.st28{fill:#161414;}
	.st29{fill:#161314;}
	.st30{clip-path:url(#SVGID_16_);enable-background:new    ;}
	.st31{fill:#1F1B1C;}
	.st32{clip-path:url(#SVGID_18_);enable-background:new    ;}
	.st33{clip-path:url(#SVGID_20_);enable-background:new    ;}
	.st34{clip-path:url(#SVGID_22_);enable-background:new    ;}
	.st35{clip-path:url(#SVGID_24_);enable-background:new    ;}
	.st36{clip-path:url(#SVGID_26_);enable-background:new    ;}
	.st37{clip-path:url(#SVGID_28_);enable-background:new    ;}
	.st38{clip-path:url(#SVGID_30_);enable-background:new    ;}
	.st39{clip-path:url(#SVGID_32_);enable-background:new    ;}
	.st40{clip-path:url(#SVGID_34_);enable-background:new    ;}
	.st41{clip-path:url(#SVGID_36_);enable-background:new    ;}
	.st42{clip-path:url(#SVGID_38_);enable-background:new    ;}
	.st43{clip-path:url(#SVGID_40_);enable-background:new    ;}
	.st44{clip-path:url(#SVGID_42_);enable-background:new    ;}
	.st45{clip-path:url(#SVGID_44_);enable-background:new    ;}
	.st46{fill:#905D00;}
	.st47{clip-path:url(#SVGID_46_);enable-background:new    ;}
	.st48{clip-path:url(#SVGID_48_);enable-background:new    ;}
	.st49{clip-path:url(#SVGID_50_);enable-background:new    ;}
	.st50{clip-path:url(#SVGID_52_);enable-background:new    ;}
	.st51{clip-path:url(#SVGID_54_);enable-background:new    ;}
	.st52{clip-path:url(#SVGID_56_);enable-background:new    ;}
	.st53{clip-path:url(#SVGID_58_);enable-background:new    ;}
	.st54{clip-path:url(#SVGID_60_);enable-background:new    ;}
	.st55{clip-path:url(#SVGID_62_);enable-background:new    ;}
	.st56{clip-path:url(#SVGID_64_);enable-background:new    ;}
	.st57{clip-path:url(#SVGID_66_);enable-background:new    ;}
	.st58{clip-path:url(#SVGID_68_);enable-background:new    ;}
	.st59{clip-path:url(#SVGID_70_);enable-background:new    ;}
	.st60{clip-path:url(#SVGID_72_);enable-background:new    ;}
	.st61{clip-path:url(#SVGID_74_);enable-background:new    ;}
	.st62{clip-path:url(#SVGID_76_);enable-background:new    ;}
	.st63{clip-path:url(#SVGID_78_);enable-background:new    ;}
	.st64{clip-path:url(#SVGID_80_);enable-background:new    ;}
	.st65{clip-path:url(#SVGID_82_);enable-background:new    ;}
	.st66{clip-path:url(#SVGID_84_);enable-background:new    ;}
	.st67{clip-path:url(#SVGID_86_);enable-background:new    ;}
	.st68{clip-path:url(#SVGID_88_);enable-background:new    ;}
	.st69{clip-path:url(#SVGID_90_);enable-background:new    ;}
	.st70{clip-path:url(#SVGID_92_);enable-background:new    ;}
	.st71{clip-path:url(#SVGID_94_);enable-background:new    ;}
	.st72{clip-path:url(#SVGID_96_);enable-background:new    ;}
	.st73{clip-path:url(#SVGID_98_);enable-background:new    ;}
	.st74{clip-path:url(#SVGID_100_);enable-background:new    ;}
	.st75{clip-path:url(#SVGID_102_);enable-background:new    ;}
	.st76{clip-path:url(#SVGID_104_);enable-background:new    ;}
	.st77{clip-path:url(#SVGID_106_);enable-background:new    ;}
	.st78{clip-path:url(#SVGID_108_);enable-background:new    ;}
	.st79{clip-path:url(#SVGID_110_);enable-background:new    ;}
	.st80{clip-path:url(#SVGID_112_);enable-background:new    ;}
	.st81{clip-path:url(#SVGID_114_);enable-background:new    ;}
	.st82{clip-path:url(#SVGID_116_);enable-background:new    ;}
	.st83{clip-path:url(#SVGID_118_);enable-background:new    ;}
	.st84{clip-path:url(#SVGID_120_);enable-background:new    ;}
	.st85{clip-path:url(#SVGID_122_);enable-background:new    ;}
	.st86{clip-path:url(#SVGID_124_);enable-background:new    ;}
	.st87{clip-path:url(#SVGID_126_);enable-background:new    ;}
	.st88{clip-path:url(#SVGID_128_);enable-background:new    ;}
	.st89{clip-path:url(#SVGID_130_);enable-background:new    ;}
	.st90{clip-path:url(#SVGID_132_);enable-background:new    ;}
	.st91{clip-path:url(#SVGID_134_);enable-background:new    ;}
	.st92{clip-path:url(#SVGID_136_);enable-background:new    ;}
	.st93{clip-path:url(#SVGID_138_);enable-background:new    ;}
	.st94{clip-path:url(#SVGID_140_);enable-background:new    ;}
	.st95{clip-path:url(#SVGID_142_);enable-background:new    ;}
	.st96{clip-path:url(#SVGID_144_);enable-background:new    ;}
	.st97{fill:#FFA500;}
	.st98{fill:#073344;}
	.st99{fill:#ECEEF1;}
</style>
<circle class="st0" cx="256" cy="256" r="204"/>
<g>
	<g>
		<g class="st1">
			<g>
				<polygon class="st17" points="268.88,321.66 246.09,309.26 307.32,300.66 330.11,313.06 				"/>
			</g>
			<g class="st1">
				<defs>
					<path id="SVGID_9_" class="st1" d="M216.26,332l-22.79-12.4c4.79-4.78,7.16-7.16,7.1-7.15l22.79,12.4
						C223.42,324.84,221.05,327.22,216.26,332z"/>
				</defs>
				<clipPath id="SVGID_2_">
					<use xlink:href="#SVGID_9_"  style="overflow:visible;"/>
				</clipPath>
				<g class="st5">
					<path class="st19" d="M216.26,332l-22.79-12.4c4.35-4.33,6.7-6.7,7.05-7.09l22.79,12.4C222.96,325.3,220.6,327.67,216.26,332"
						/>
					<path class="st20" d="M223.31,324.91l-22.79-12.4c0.02-0.02,0.03-0.04,0.04-0.05l22.79,12.4
						C223.34,324.87,223.33,324.89,223.31,324.91"/>
					<polyline class="st21" points="223.35,324.86 200.56,312.46 200.56,312.45 223.35,324.85 223.35,324.86 					"/>
					<polyline class="st22" points="223.35,324.85 200.56,312.45 200.56,312.45 223.36,324.85 223.35,324.85 					"/>
					<polyline class="st23" points="223.36,324.85 200.56,312.45 200.56,312.45 223.35,324.85 223.36,324.85 					"/>
				</g>
			</g>
			<g>
				<polygon class="st24" points="216.2,363.08 193.4,350.68 193.46,319.6 216.26,332 				"/>
			</g>
			<g class="st1">
				<defs>
					<path id="SVGID_11_" class="st1" d="M258.81,199.27l22.79,12.4c1.18,0.64,2.22,1.49,3.12,2.54c2.87,3.35,4.29,8.37,4.28,15.06
						c-0.02,8.81-2.98,18.28-8.89,28.41c-5.91,10.13-13.15,20.04-21.71,29.73c-8.55,9.69-20.25,22.18-35.04,37.44l-22.79-12.4
						c14.79-15.26,26.49-27.75,35.04-37.44c8.55-9.68,15.8-19.59,21.71-29.73c5.91-10.13,8.88-19.6,8.89-28.41
						c0.01-6.69-1.41-11.71-4.28-15.06C261.03,200.76,259.99,199.91,258.81,199.27z"/>
				</defs>
				<clipPath id="SVGID_4_">
					<use xlink:href="#SVGID_11_"  style="overflow:visible;"/>
				</clipPath>
				<g class="st11">
					<path class="st19" d="M223.35,324.85l-22.79-12.4c14.79-15.26,26.49-27.75,35.04-37.44c0.01-0.02,0.03-0.03,0.04-0.05
						l22.79,12.4c-0.01,0.02-0.03,0.03-0.04,0.05C249.84,297.1,238.14,309.59,223.35,324.85"/>
					<path class="st20" d="M258.44,287.36l-22.79-12.4c5.09-5.76,9.71-11.61,13.87-17.53l22.79,12.4
						C268.15,275.75,263.53,281.6,258.44,287.36"/>
					<path class="st21" d="M272.31,269.83l-22.79-12.4c2.82-4.01,5.42-8.06,7.8-12.15c0.53-0.9,1.03-1.8,1.51-2.69l22.79,12.4
						c-0.48,0.89-0.98,1.79-1.51,2.69C277.72,261.76,275.12,265.81,272.31,269.83"/>
					<path class="st22" d="M281.62,254.99l-22.79-12.4c1.7-3.16,3.11-6.25,4.22-9.28l22.79,12.4
						C284.72,248.74,283.32,251.83,281.62,254.99"/>
					<path class="st23" d="M285.84,245.71l-22.79-12.4c2.1-5.71,3.16-11.2,3.17-16.44c0.01-6.69-1.41-11.71-4.28-15.06
						c-0.9-1.05-1.94-1.9-3.12-2.54l22.79,12.4c1.18,0.64,2.22,1.49,3.12,2.54c2.87,3.35,4.29,8.37,4.28,15.06
						C288.99,234.52,287.94,240,285.84,245.71"/>
				</g>
			</g>
			<g class="st1">
				<defs>
					<path id="SVGID_13_" class="st1" d="M284.31,166.62l22.79,12.4c-8.59-4.68-19.81-6.04-33.64-4.1l-22.79-12.4
						C264.5,160.57,275.72,161.94,284.31,166.62z"/>
				</defs>
				<clipPath id="SVGID_6_">
					<use xlink:href="#SVGID_13_"  style="overflow:visible;"/>
				</clipPath>
				<g class="st12">
					<path class="st27" d="M273.46,174.92l-22.79-12.4c9.58-1.35,17.91-1.1,24.97,0.72l22.79,12.4
						C291.37,173.81,283.04,173.57,273.46,174.92"/>
					<path class="st28" d="M298.44,175.64l-22.79-12.4c2.64,0.68,5.1,1.59,7.39,2.71l22.79,12.4
						C303.53,177.23,301.07,176.32,298.44,175.64"/>
					<path class="st29" d="M305.82,178.35l-22.79-12.4c0.43,0.21,0.86,0.43,1.28,0.66l22.79,12.4
						C306.68,178.79,306.26,178.56,305.82,178.35"/>
				</g>
			</g>
			<g class="st1">
				<defs>
					<path id="SVGID_15_" class="st1" d="M215.97,244.91l-22.79-12.4c0.32-13.91,3.11-25.88,8.34-35.92
						c5.23-10.04,12.13-17.86,20.67-23.46c8.56-5.61,18.04-9.15,28.48-10.62l22.79,12.4c-10.44,1.47-19.93,5-28.48,10.62
						c-8.55,5.6-15.44,13.42-20.67,23.46C219.08,219.03,216.29,231,215.97,244.91z"/>
				</defs>
				<clipPath id="SVGID_8_">
					<use xlink:href="#SVGID_15_"  style="overflow:visible;"/>
				</clipPath>
				<g class="st16">
					<path class="st23" d="M215.97,244.91l-22.79-12.4c0.24-10.52,1.89-19.93,4.95-28.23l22.79,12.4
						C217.86,224.99,216.21,234.4,215.97,244.91"/>
					<path class="st22" d="M220.92,216.68l-22.79-12.4c0.98-2.68,2.12-5.24,3.39-7.69c0.15-0.29,0.31-0.58,0.46-0.87l22.79,12.4
						c-0.16,0.29-0.31,0.58-0.46,0.87C223.03,211.44,221.9,214,220.92,216.68"/>
					<path class="st21" d="M224.77,208.12l-22.79-12.4c1.34-2.5,2.79-4.85,4.35-7.07l22.79,12.4
						C227.56,203.27,226.11,205.62,224.77,208.12"/>
					<path class="st20" d="M229.12,201.05l-22.79-12.4c1.36-1.94,2.8-3.78,4.33-5.5l22.79,12.4
						C231.92,197.28,230.48,199.11,229.12,201.05"/>
					<path class="st19" d="M233.44,195.55l-22.79-12.4c1.49-1.69,3.06-3.27,4.7-4.75l22.79,12.4
						C236.5,192.28,234.93,193.86,233.44,195.55"/>
					<path class="st29" d="M238.14,190.8l-22.79-12.4c1.79-1.61,3.68-3.11,5.66-4.47l22.79,12.4
						C241.82,187.7,239.94,189.19,238.14,190.8"/>
					<path class="st28" d="M243.8,186.33l-22.79-12.4c0.39-0.27,0.78-0.53,1.18-0.79c2.68-1.76,5.46-3.32,8.33-4.67l22.79,12.4
						c-2.87,1.35-5.64,2.91-8.33,4.67C244.58,185.79,244.19,186.06,243.8,186.33"/>
					<path class="st27" d="M253.31,180.86l-22.79-12.4c6.27-2.96,12.99-4.94,20.15-5.95l22.79,12.4
						C266.3,175.92,259.58,177.91,253.31,180.86"/>
				</g>
			</g>
			<g>
				<path class="st31" d="M273.46,174.92c17.99-2.53,31.55,0.54,40.68,9.21c9.12,8.68,13.68,21.01,13.65,37
					c-0.03,17.46-5.59,34.44-16.65,50.92c-11.07,16.48-25.16,33.03-42.26,49.62l61.23-8.61l-0.06,34.02l-113.85,16l0.06-31.08
					c4.79-4.78,7.16-7.16,7.1-7.15c14.79-15.26,26.49-27.75,35.04-37.44c8.55-9.68,15.8-19.59,21.71-29.73
					c5.91-10.13,8.88-19.6,8.89-28.41c0.01-6.69-1.41-11.71-4.28-15.06c-2.86-3.35-7.17-4.63-12.91-3.82
					c-5.75,0.81-10.25,3.77-13.51,8.87c-3.26,5.11-4.9,11.91-4.91,20.39l-37.42,5.26c0.32-13.91,3.11-25.88,8.34-35.92
					c5.23-10.04,12.13-17.86,20.67-23.46C253.54,179.92,263.03,176.38,273.46,174.92z"/>
			</g>
		</g>
	</g>
</g>
</svg>
