<?xml version="1.0" encoding="utf-8"?>
<!-- Generator: Adobe Illustrator 23.0.3, SVG Export Plug-In . SVG Version: 6.00 Build 0)  -->
<svg version="1.1" id="Layer_1" xmlns="http://www.w3.org/2000/svg" xmlns:xlink="http://www.w3.org/1999/xlink" x="0px" y="0px"
	 viewBox="0 0 512 512" style="enable-background:new 0 0 512 512;" xml:space="preserve">
<style type="text/css">
	.st0{fill:none;stroke:#231F20;stroke-width:15;stroke-miterlimit:10;}
	.st1{enable-background:new    ;}
	.st2{fill:#825400;}
	.st3{fill:#B47500;}
	.st4{fill:#DF9000;}
	.st5{clip-path:url(#SVGID_2_);enable-background:new    ;}
	.st6{fill:#996300;}
	.st7{fill:#946000;}
	.st8{fill:#8F5C00;}
	.st9{fill:#8A5900;}
	.st10{fill:#855600;}
	.st11{clip-path:url(#SVGID_4_);enable-background:new    ;}
	.st12{clip-path:url(#SVGID_6_);enable-background:new    ;}
	.st13{fill:#A86D00;}
	.st14{fill:#A36A00;}
	.st15{fill:#9E6600;}
	.st16{clip-path:url(#SVGID_8_);enable-background:new    ;}
	.st17{clip-path:url(#SVGID_10_);enable-background:new    ;}
	.st18{clip-path:url(#SVGID_12_);enable-background:new    ;}
	.st19{clip-path:url(#SVGID_14_);enable-background:new    ;}
	.st20{clip-path:url(#SVGID_16_);enable-background:new    ;}
	.st21{clip-path:url(#SVGID_18_);enable-background:new    ;}
	.st22{clip-path:url(#SVGID_20_);enable-background:new    ;}
	.st23{clip-path:url(#SVGID_22_);enable-background:new    ;}
	.st24{fill:#171415;}
	.st25{fill:#161414;}
	.st26{fill:#161314;}
	.st27{clip-path:url(#SVGID_24_);enable-background:new    ;}
	.st28{fill:#151313;}
	.st29{fill:#141213;}
	.st30{fill:#141112;}
	.st31{fill:#131111;}
	.st32{fill:#121011;}
	.st33{clip-path:url(#SVGID_26_);enable-background:new    ;}
	.st34{fill:#191617;}
	.st35{fill:#121010;}
	.st36{clip-path:url(#SVGID_28_);enable-background:new    ;}
	.st37{clip-path:url(#SVGID_30_);enable-background:new    ;}
	.st38{fill:#1F1B1C;}
	.st39{clip-path:url(#SVGID_32_);enable-background:new    ;}
	.st40{clip-path:url(#SVGID_34_);enable-background:new    ;}
	.st41{clip-path:url(#SVGID_36_);enable-background:new    ;}
	.st42{clip-path:url(#SVGID_38_);enable-background:new    ;}
	.st43{clip-path:url(#SVGID_40_);enable-background:new    ;}
	.st44{clip-path:url(#SVGID_42_);enable-background:new    ;}
	.st45{clip-path:url(#SVGID_44_);enable-background:new    ;}
	.st46{clip-path:url(#SVGID_46_);enable-background:new    ;}
	.st47{clip-path:url(#SVGID_48_);enable-background:new    ;}
	.st48{fill:#905D00;}
	.st49{clip-path:url(#SVGID_50_);enable-background:new    ;}
	.st50{clip-path:url(#SVGID_52_);enable-background:new    ;}
	.st51{clip-path:url(#SVGID_54_);enable-background:new    ;}
	.st52{clip-path:url(#SVGID_56_);enable-background:new    ;}
	.st53{clip-path:url(#SVGID_58_);enable-background:new    ;}
	.st54{clip-path:url(#SVGID_60_);enable-background:new    ;}
	.st55{clip-path:url(#SVGID_62_);enable-background:new    ;}
	.st56{clip-path:url(#SVGID_64_);enable-background:new    ;}
	.st57{clip-path:url(#SVGID_66_);enable-background:new    ;}
	.st58{clip-path:url(#SVGID_68_);enable-background:new    ;}
	.st59{clip-path:url(#SVGID_70_);enable-background:new    ;}
	.st60{clip-path:url(#SVGID_72_);enable-background:new    ;}
	.st61{clip-path:url(#SVGID_74_);enable-background:new    ;}
	.st62{clip-path:url(#SVGID_76_);enable-background:new    ;}
	.st63{clip-path:url(#SVGID_78_);enable-background:new    ;}
	.st64{clip-path:url(#SVGID_80_);enable-background:new    ;}
	.st65{clip-path:url(#SVGID_82_);enable-background:new    ;}
	.st66{clip-path:url(#SVGID_84_);enable-background:new    ;}
	.st67{clip-path:url(#SVGID_86_);enable-background:new    ;}
	.st68{clip-path:url(#SVGID_88_);enable-background:new    ;}
	.st69{clip-path:url(#SVGID_90_);enable-background:new    ;}
	.st70{clip-path:url(#SVGID_92_);enable-background:new    ;}
	.st71{clip-path:url(#SVGID_94_);enable-background:new    ;}
	.st72{clip-path:url(#SVGID_96_);enable-background:new    ;}
	.st73{clip-path:url(#SVGID_98_);enable-background:new    ;}
	.st74{clip-path:url(#SVGID_100_);enable-background:new    ;}
	.st75{clip-path:url(#SVGID_102_);enable-background:new    ;}
	.st76{clip-path:url(#SVGID_104_);enable-background:new    ;}
	.st77{clip-path:url(#SVGID_106_);enable-background:new    ;}
	.st78{clip-path:url(#SVGID_108_);enable-background:new    ;}
	.st79{clip-path:url(#SVGID_110_);enable-background:new    ;}
	.st80{clip-path:url(#SVGID_112_);enable-background:new    ;}
	.st81{clip-path:url(#SVGID_114_);enable-background:new    ;}
	.st82{clip-path:url(#SVGID_116_);enable-background:new    ;}
	.st83{clip-path:url(#SVGID_118_);enable-background:new    ;}
	.st84{clip-path:url(#SVGID_120_);enable-background:new    ;}
	.st85{clip-path:url(#SVGID_122_);enable-background:new    ;}
	.st86{clip-path:url(#SVGID_124_);enable-background:new    ;}
	.st87{clip-path:url(#SVGID_126_);enable-background:new    ;}
	.st88{clip-path:url(#SVGID_128_);enable-background:new    ;}
	.st89{clip-path:url(#SVGID_130_);enable-background:new    ;}
	.st90{clip-path:url(#SVGID_132_);enable-background:new    ;}
	.st91{clip-path:url(#SVGID_134_);enable-background:new    ;}
	.st92{clip-path:url(#SVGID_136_);enable-background:new    ;}
	.st93{clip-path:url(#SVGID_138_);enable-background:new    ;}
	.st94{clip-path:url(#SVGID_140_);enable-background:new    ;}
	.st95{clip-path:url(#SVGID_142_);enable-background:new    ;}
	.st96{clip-path:url(#SVGID_144_);enable-background:new    ;}
	.st97{clip-path:url(#SVGID_146_);enable-background:new    ;}
	.st98{clip-path:url(#SVGID_148_);enable-background:new    ;}
	.st99{fill:#FFA500;}
	.st100{fill:#073344;}
	.st101{fill:#ECEEF1;}
</style>
<circle class="st0" cx="256" cy="256" r="204"/>
<g>
	<g>
		<g class="st1">
			<g class="st1">
				<defs>
					<path id="SVGID_21_" class="st1" d="M287.17,249.55l22.79,12.4c-3.01-1.64-6.35-2.86-10.02-3.66l-22.79-12.4
						C280.82,246.69,284.16,247.92,287.17,249.55z"/>
				</defs>
				<clipPath id="SVGID_2_">
					<use xlink:href="#SVGID_21_"  style="overflow:visible;"/>
				</clipPath>
				<g class="st5">
					<path class="st24" d="M299.94,258.29l-22.79-12.4c0.53,0.12,1.06,0.24,1.58,0.38l22.79,12.4
						C301,258.53,300.48,258.41,299.94,258.29"/>
					<path class="st25" d="M301.52,258.67l-22.79-12.4c2.57,0.67,4.97,1.55,7.2,2.64l22.79,12.4
						C306.49,260.21,304.09,259.33,301.52,258.67"/>
					<path class="st26" d="M308.72,261.31l-22.79-12.4c0.42,0.21,0.83,0.42,1.24,0.64l22.79,12.4
						C309.55,261.73,309.14,261.52,308.72,261.31"/>
				</g>
			</g>
			<g class="st1">
				<defs>
					<path id="SVGID_23_" class="st1" d="M259.03,320.59l-22.79-12.4c3.32,1.8,7.54,2.35,12.69,1.63c5.9-0.83,10.47-3.31,13.72-7.43
						c3.26-4.13,4.89-9.21,4.91-15.25c0.01-7.83-2.28-13.18-6.88-16.04c-0.22-0.14-0.45-0.27-0.68-0.39l22.79,12.4
						c0.23,0.13,0.46,0.26,0.68,0.39c4.6,2.86,6.9,8.21,6.88,16.04c-0.01,6.04-1.65,11.12-4.91,15.25
						c-3.26,4.12-7.83,6.61-13.72,7.43C266.57,322.94,262.35,322.4,259.03,320.59z"/>
				</defs>
				<clipPath id="SVGID_4_">
					<use xlink:href="#SVGID_23_"  style="overflow:visible;"/>
				</clipPath>
				<g class="st11">
					<path class="st26" d="M259.03,320.59l-22.79-12.4c0.17,0.09,0.34,0.18,0.51,0.26l22.79,12.4
						C259.36,320.77,259.19,320.68,259.03,320.59"/>
					<path class="st25" d="M259.54,320.85l-22.79-12.4c0.9,0.44,1.87,0.8,2.9,1.07l22.79,12.4
						C261.41,321.65,260.44,321.3,259.54,320.85"/>
					<path class="st24" d="M262.44,321.92l-22.79-12.4c2.66,0.69,5.76,0.79,9.28,0.29c2.52-0.35,4.81-1.01,6.84-1.97l22.79,12.4
						c-2.04,0.96-4.32,1.62-6.84,1.97C268.19,322.71,265.1,322.61,262.44,321.92"/>
					<path class="st25" d="M278.56,320.24l-22.79-12.4c0.98-0.46,1.9-0.99,2.77-1.59l22.79,12.4
						C280.46,319.25,279.54,319.78,278.56,320.24"/>
					<path class="st26" d="M281.33,318.65l-22.79-12.4c0.66-0.45,1.28-0.95,1.88-1.48l22.79,12.4
						C282.61,317.7,281.99,318.2,281.33,318.65"/>
					<path class="st28" d="M283.2,317.17l-22.79-12.4c0.54-0.49,1.05-1,1.54-1.56l22.79,12.4
						C284.26,316.16,283.74,316.68,283.2,317.17"/>
					<path class="st29" d="M284.74,315.61l-22.79-12.4c0.24-0.27,0.47-0.55,0.7-0.83c0.26-0.33,0.5-0.66,0.74-0.99l22.79,12.4
						c-0.24,0.34-0.48,0.67-0.74,0.99C285.21,315.07,284.98,315.34,284.74,315.61"/>
					<path class="st30" d="M286.18,313.79l-22.79-12.4c0.49-0.7,0.94-1.43,1.35-2.18l22.79,12.4
						C287.12,312.36,286.67,313.08,286.18,313.79"/>
					<path class="st31" d="M287.53,311.6l-22.79-12.4c0.49-0.91,0.92-1.86,1.28-2.84l22.79,12.4
						C288.44,309.75,288.02,310.69,287.53,311.6"/>
					<path class="st32" d="M288.8,308.76l-22.79-12.4c1.02-2.78,1.53-5.85,1.54-9.23c0.01-7.83-2.28-13.18-6.88-16.04
						c-0.22-0.14-0.45-0.27-0.68-0.39l22.79,12.4c0.23,0.13,0.46,0.26,0.68,0.39c4.6,2.86,6.9,8.21,6.88,16.04
						C290.34,302.91,289.83,305.98,288.8,308.76"/>
				</g>
			</g>
			<g class="st1">
				<defs>
					<path id="SVGID_25_" class="st1" d="M257.55,196.83l22.79,12.4c0.89,0.49,1.71,1.08,2.47,1.79c3.01,2.84,4.52,7.2,4.51,13.07
						c-0.01,7.34-2.4,12.78-7.17,16.31c-4.77,3.52-11.01,5.83-18.72,6.91l-22.79-12.4c7.71-1.08,13.95-3.39,18.72-6.91
						c4.77-3.52,7.16-8.97,7.17-16.31c0.01-5.87-1.49-10.23-4.51-13.07C259.26,197.92,258.44,197.32,257.55,196.83z"/>
				</defs>
				<clipPath id="SVGID_6_">
					<use xlink:href="#SVGID_25_"  style="overflow:visible;"/>
				</clipPath>
				<g class="st12">
					<path class="st24" d="M261.42,247.31l-22.79-12.4c5.14-0.72,9.63-1.99,13.46-3.79l22.79,12.4
						C271.05,245.32,266.56,246.58,261.42,247.31"/>
					<path class="st25" d="M274.88,243.51l-22.79-12.4c1.63-0.77,3.15-1.64,4.54-2.6l22.79,12.4
						C278.02,241.88,276.51,242.74,274.88,243.51"/>
					<path class="st26" d="M279.42,240.91l-22.79-12.4c0.24-0.17,0.48-0.34,0.72-0.51c0.45-0.33,0.88-0.69,1.29-1.05l22.79,12.4
						c-0.41,0.37-0.84,0.72-1.29,1.05C279.9,240.57,279.66,240.74,279.42,240.91"/>
					<path class="st28" d="M281.43,239.34l-22.79-12.4c0.47-0.42,0.91-0.87,1.32-1.34l22.79,12.4
						C282.35,238.47,281.9,238.92,281.43,239.34"/>
					<path class="st29" d="M282.76,238l-22.79-12.4c0.4-0.45,0.77-0.93,1.12-1.42l22.79,12.4
						C283.53,237.08,283.16,237.55,282.76,238"/>
					<path class="st30" d="M283.88,236.58l-22.79-12.4c0.37-0.53,0.72-1.09,1.03-1.67l22.79,12.4
						C284.6,235.49,284.25,236.05,283.88,236.58"/>
					<path class="st31" d="M284.91,234.91l-22.79-12.4c0.39-0.73,0.74-1.5,1.03-2.31l22.79,12.4
						C285.65,233.41,285.3,234.18,284.91,234.91"/>
					<path class="st32" d="M285.94,232.6l-22.79-12.4c0.91-2.48,1.37-5.32,1.37-8.51c0.01-5.87-1.49-10.23-4.51-13.07
						c-0.75-0.71-1.57-1.3-2.47-1.79l22.79,12.4c0.89,0.49,1.71,1.08,2.47,1.79c3.01,2.84,4.52,7.2,4.51,13.07
						C287.31,227.29,286.85,230.13,285.94,232.6"/>
				</g>
			</g>
			<g>
				<polygon class="st34" points="254.16,248.33 231.37,235.93 238.63,234.91 261.42,247.31 				"/>
			</g>
			<g>
				<polygon class="st35" points="254.1,282.36 231.31,269.96 231.37,235.93 254.16,248.33 				"/>
			</g>
			<g>
				<polygon class="st34" points="212.56,307.28 189.77,294.88 227.42,289.59 250.21,301.99 				"/>
			</g>
			<g class="st1">
				<defs>
					<path id="SVGID_27_" class="st1" d="M234.81,351.79l-22.79-12.4c-1.82-0.99-3.56-2.11-5.21-3.35
						c-10.8-8.11-16.48-21.83-17.05-41.17l22.79,12.4c0.56,19.33,6.25,33.06,17.05,41.17C231.26,349.69,232.99,350.8,234.81,351.79z
						"/>
				</defs>
				<clipPath id="SVGID_8_">
					<use xlink:href="#SVGID_27_"  style="overflow:visible;"/>
				</clipPath>
				<g class="st16">
					<path class="st32" d="M234.81,351.79l-22.79-12.4c-1.82-0.99-3.56-2.11-5.21-3.35c-10.8-8.11-16.48-21.83-17.05-41.17
						l22.79,12.4c0.56,19.33,6.25,33.06,17.05,41.17C231.26,349.69,232.99,350.8,234.81,351.79"/>
				</g>
			</g>
			<g class="st1">
				<defs>
					<path id="SVGID_29_" class="st1" d="M282.74,164.96l22.79,12.4c-1.6-0.87-3.3-1.65-5.09-2.34c-8.08-3.11-17.8-3.86-29.13-2.27
						l-22.79-12.4c11.33-1.59,21.05-0.84,29.13,2.27C279.44,163.31,281.14,164.09,282.74,164.96z"/>
				</defs>
				<clipPath id="SVGID_10_">
					<use xlink:href="#SVGID_29_"  style="overflow:visible;"/>
				</clipPath>
				<g class="st17">
					<path class="st24" d="M271.31,172.75l-22.79-12.4c9.27-1.3,17.45-1.04,24.55,0.8l22.79,12.4
						C288.77,171.71,280.58,171.44,271.31,172.75"/>
					<path class="st25" d="M295.86,173.55l-22.79-12.4c1.58,0.41,3.11,0.9,4.58,1.46c1.25,0.48,2.46,1.01,3.62,1.58l22.79,12.4
						c-1.16-0.57-2.36-1.1-3.62-1.58C298.97,174.45,297.44,173.96,295.86,173.55"/>
					<path class="st26" d="M304.06,176.59l-22.79-12.4c0.5,0.25,0.99,0.5,1.48,0.76l22.79,12.4
						C305.05,177.09,304.56,176.84,304.06,176.59"/>
				</g>
			</g>
			<g>
				<path class="st38" d="M271.31,172.75c11.33-1.59,21.05-0.84,29.13,2.27c8.07,3.11,14.19,8.04,18.34,14.8
					c4.14,6.76,6.21,14.71,6.19,23.85c-0.02,10.76-2.54,19.89-7.54,27.36c-5,7.48-10.83,12.91-17.49,16.29l0,0.98
					c8.61,1.89,15.41,6.07,20.38,12.56c4.98,6.48,7.46,15.35,7.44,26.61c-0.02,10.12-2.19,19.36-6.51,27.71
					c-4.32,8.36-10.62,15.32-18.86,20.89c-8.25,5.56-18.04,9.14-29.39,10.73c-18.14,2.55-32.61-0.22-43.4-8.34
					c-10.8-8.11-16.48-21.83-17.05-41.17l37.65-5.29c0.13,7.16,2.02,12.56,5.64,16.22c3.62,3.65,8.9,4.99,15.87,4.01
					c5.9-0.83,10.47-3.31,13.72-7.43c3.26-4.13,4.89-9.21,4.91-15.25c0.01-7.83-2.28-13.18-6.88-16.04
					c-4.61-2.85-11.98-3.57-22.11-2.15l-7.26,1.02l0.06-34.03l7.26-1.02c7.71-1.08,13.95-3.39,18.72-6.91
					c4.77-3.52,7.16-8.97,7.17-16.31c0.01-5.87-1.49-10.23-4.51-13.07c-3.02-2.84-7.18-3.89-12.47-3.15
					c-5.74,0.81-10.02,3.29-12.82,7.44c-2.81,4.15-4.44,9.03-4.9,14.63l-37.87,5.32c0.63-17.54,5.95-31.75,15.95-42.62
					C240.68,181.78,254.22,175.15,271.31,172.75z"/>
			</g>
			<g class="st1">
				<defs>
					<path id="SVGID_31_" class="st1" d="M214.74,235.26l-22.79-12.4c0.63-17.54,5.95-31.75,15.95-42.62
						c9.99-10.87,23.53-17.5,40.62-19.9l22.79,12.4c-17.09,2.4-30.63,9.03-40.62,19.9C220.69,203.52,215.37,217.72,214.74,235.26z"
						/>
				</defs>
				<clipPath id="SVGID_12_">
					<use xlink:href="#SVGID_31_"  style="overflow:visible;"/>
				</clipPath>
				<g class="st18">
					<path class="st32" d="M214.74,235.26l-22.79-12.4c0.31-8.62,1.76-16.44,4.33-23.45l22.79,12.4
						C216.49,218.82,215.05,226.64,214.74,235.26"/>
					<path class="st31" d="M219.07,211.81l-22.79-12.4c0.98-2.67,2.13-5.23,3.44-7.67l22.79,12.4
						C221.2,206.58,220.05,209.14,219.07,211.81"/>
					<path class="st30" d="M222.51,204.14l-22.79-12.4c1.06-1.97,2.23-3.87,3.51-5.69l22.79,12.4
						C224.74,200.27,223.57,202.17,222.51,204.14"/>
					<path class="st29" d="M226.02,198.45l-22.79-12.4c1.21-1.72,2.51-3.37,3.91-4.95l22.79,12.4
						C228.52,195.08,227.22,196.73,226.02,198.45"/>
					<path class="st28" d="M229.92,193.5l-22.79-12.4c0.25-0.29,0.51-0.57,0.77-0.85c1.26-1.37,2.58-2.68,3.96-3.92l22.79,12.4
						c-1.38,1.24-2.69,2.54-3.96,3.92C230.43,192.93,230.18,193.21,229.92,193.5"/>
					<path class="st26" d="M234.64,188.73l-22.79-12.4c1.84-1.66,3.79-3.2,5.84-4.61l22.79,12.4
						C238.43,185.54,236.49,187.07,234.64,188.73"/>
					<path class="st25" d="M240.48,184.12l-22.79-12.4c2.73-1.89,5.65-3.56,8.74-5.02l22.79,12.4
						C246.13,180.56,243.21,182.23,240.48,184.12"/>
					<path class="st24" d="M249.22,179.1l-22.79-12.4c6.55-3.09,13.91-5.2,22.09-6.35l22.79,12.4
						C263.14,173.9,255.77,176.01,249.22,179.1"/>
				</g>
			</g>
		</g>
	</g>
</g>
</svg>
