<svg id="visual" viewBox="0 0 960 540" width="960" height="540" xmlns="http://www.w3.org/2000/svg"
     xmlns:xlink="http://www.w3.org/1999/xlink" version="1.1">
    <path d="M0 83L22.8 87C45.7 91 91.3 99 137 127.5C182.7 156 228.3 205 274 218C319.7 231 365.3 208 411.2 197.5C457 187 503 189 548.8 194.5C594.7 200 640.3 209 686 191.7C731.7 174.3 777.3 130.7 823 113.7C868.7 96.7 914.3 106.3 937.2 111.2L960 116L960 0L937.2 0C914.3 0 868.7 0 823 0C777.3 0 731.7 0 686 0C640.3 0 594.7 0 548.8 0C503 0 457 0 411.2 0C365.3 0 319.7 0 274 0C228.3 0 182.7 0 137 0C91.3 0 45.7 0 22.8 0L0 0Z"
          fill="#f9db03"></path>
    <path d="M0 79L22.8 78.5C45.7 78 91.3 77 137 96.8C182.7 116.7 228.3 157.3 274 174.3C319.7 191.3 365.3 184.7 411.2 172.5C457 160.3 503 142.7 548.8 133.5C594.7 124.3 640.3 123.7 686 115.7C731.7 107.7 777.3 92.3 823 85C868.7 77.7 914.3 78.3 937.2 78.7L960 79L960 0L937.2 0C914.3 0 868.7 0 823 0C777.3 0 731.7 0 686 0C640.3 0 594.7 0 548.8 0C503 0 457 0 411.2 0C365.3 0 319.7 0 274 0C228.3 0 182.7 0 137 0C91.3 0 45.7 0 22.8 0L0 0Z"
          fill="#fde461"></path>
    <path d="M0 26L22.8 41.5C45.7 57 91.3 88 137 91.7C182.7 95.3 228.3 71.7 274 72.5C319.7 73.3 365.3 98.7 411.2 102.7C457 106.7 503 89.3 548.8 83.3C594.7 77.3 640.3 82.7 686 77.5C731.7 72.3 777.3 56.7 823 56.7C868.7 56.7 914.3 72.3 937.2 80.2L960 88L960 0L937.2 0C914.3 0 868.7 0 823 0C777.3 0 731.7 0 686 0C640.3 0 594.7 0 548.8 0C503 0 457 0 411.2 0C365.3 0 319.7 0 274 0C228.3 0 182.7 0 137 0C91.3 0 45.7 0 22.8 0L0 0Z"
          fill="#ffec98"></path>
    <path d="M0 123L22.8 111.3C45.7 99.7 91.3 76.3 137 71C182.7 65.7 228.3 78.3 274 73.3C319.7 68.3 365.3 45.7 411.2 38.3C457 31 503 39 548.8 45.5C594.7 52 640.3 57 686 64.5C731.7 72 777.3 82 823 81.7C868.7 81.3 914.3 70.7 937.2 65.3L960 60L960 0L937.2 0C914.3 0 868.7 0 823 0C777.3 0 731.7 0 686 0C640.3 0 594.7 0 548.8 0C503 0 457 0 411.2 0C365.3 0 319.7 0 274 0C228.3 0 182.7 0 137 0C91.3 0 45.7 0 22.8 0L0 0Z"
          fill="#fff5cc"></path>
    <path d="M0 34L22.8 41.7C45.7 49.3 91.3 64.7 137 64.8C182.7 65 228.3 50 274 47.5C319.7 45 365.3 55 411.2 59.3C457 63.7 503 62.3 548.8 59.7C594.7 57 640.3 53 686 47.3C731.7 41.7 777.3 34.3 823 38.8C868.7 43.3 914.3 59.7 937.2 67.8L960 76L960 0L937.2 0C914.3 0 868.7 0 823 0C777.3 0 731.7 0 686 0C640.3 0 594.7 0 548.8 0C503 0 457 0 411.2 0C365.3 0 319.7 0 274 0C228.3 0 182.7 0 137 0C91.3 0 45.7 0 22.8 0L0 0Z"
          fill="#ffffff"></path>
</svg>